{
    "asset": {
        "generator": "SOLIDWORKSGLTF",
        "version": "2.0"
    },
    "scene": 0,
    "scenes": [
        {
            "name": "Default",
            "nodes": [
                0,
                1
            ]
        }
    ],
    "nodes": [
        {
            "matrix": [
                0.7477041205742605,
                2.7755575615628914e-17,
                -0.6640320384411221,
                0.0,
                -0.38288941123783876,
                0.817017510476636,
                -0.43113580961977777,
                0.0,
                0.5425258029238914,
                0.5766128576216109,
                0.6108873591647047,
                0.0,
                1.7465954719760197,
                1.9985234126281184,
                2.477260610645801,
                1.0
            ],
            "camera": 0,
            "name": "current camera"
        },
        {
            "children": [
                2,
                3,
                4,
                5,
                6,
                7,
                8,
                9,
                10,
                11,
                12,
                13,
                16,
                17,
                18,
                19,
                20,
                21
            ],
            "name": "Assembly"
        },
        {
            "rotation": [
                0.0,
                0.7071068286895752,
                0.0,
                0.7071068286895752
            ],
            "translation": [
                0.49454450607299805,
                0.9055349826812744,
                1.54860520362854
            ],
            "mesh": 0,
            "name": "Battery_Mount_V4-1"
        },
        {
            "rotation": [
                0.7071068286895752,
                0.0,
                0.0,
                0.7071068286895752
            ],
            "translation": [
                0.9910796880722046,
                0.9822949767112732,
                1.294520616531372
            ],
            "mesh": 1,
            "name": "12 x 11 battery pack (1).step-1"
        },
        {
            "rotation": [
                0.0,
                -0.7071068286895752,
                0.0,
                0.7071068286895752
            ],
            "translation": [
                0.6265046000480652,
                1.0573219060897827,
                1.263545274734497
            ],
            "mesh": 2,
            "name": "M4 SP-M4-2-TSC-2"
        },
        {
            "rotation": [
                0.0,
                1.0,
                0.0,
                -3.491481243527014e-15
            ],
            "translation": [
                -0.4343317449092865,
                2.9914350509643555,
                1.5419752597808838
            ],
            "mesh": 3,
            "name": "Side piece-4"
        },
        {
            "rotation": [
                0.0,
                0.0,
                1.0,
                -3.491481243527014e-15
            ],
            "translation": [
                0.7832697629928589,
                1.0755683183670044,
                1.4036352634429932
            ],
            "mesh": 4,
            "name": "lid-1"
        },
        {
            "rotation": [
                0.7071068286895752,
                0.0,
                0.0,
                0.7071068286895752
            ],
            "translation": [
                0.9912644028663635,
                1.0582950115203857,
                1.2940359115600586
            ],
            "mesh": 5,
            "name": "12 x 11 battery pack (1).step-3"
        },
        {
            "rotation": [
                0.0,
                -0.7071068286895752,
                0.0,
                0.7071068286895752
            ],
            "translation": [
                0.9371602535247803,
                1.0571584701538086,
                1.263545274734497
            ],
            "mesh": 6,
            "name": "M4 SP-M4-2-TSC-1"
        },
        {
            "translation": [
                0.7642697691917419,
                0.9087949395179749,
                1.4044452905654907
            ],
            "mesh": 7,
            "name": "Battery Box Bottom-1"
        },
        {
            "rotation": [
                0.0,
                -0.7071068286895752,
                0.0,
                0.7071068286895752
            ],
            "translation": [
                0.9757997989654541,
                2.9914186000823975,
                2.677046775817871
            ],
            "mesh": 8,
            "name": "Side piece-2"
        },
        {
            "translation": [
                2.000871181488037,
                2.9914629459381104,
                1.266915202140808
            ],
            "mesh": 9,
            "name": "Side piece-1"
        },
        {
            "rotation": [
                0.0,
                0.7071068286895752,
                0.0,
                0.7071068286895752
            ],
            "translation": [
                0.5907397866249084,
                2.9913840293884277,
                0.13184373080730438
            ],
            "mesh": 10,
            "name": "Side piece-3"
        },
        {
            "rotation": [
                0.0,
                0.7071068286895752,
                0.0,
                0.7071068286895752
            ],
            "translation": [
                0.5939998030662537,
                0.9917999505996704,
                1.4051542282104492
            ],
            "children": [
                14,
                15
            ],
            "name": "ventilateur axial 120x120x38.step"
        },
        {
            "mesh": 11,
            "name": "rotor.step-1"
        },
        {
            "mesh": 12,
            "name": "stator.step-1"
        },
        {
            "rotation": [
                0.0,
                1.0,
                0.0,
                -3.491481243527014e-15
            ],
            "translation": [
                0.9791697859764099,
                1.0585392713546753,
                1.5079708099365234
            ],
            "mesh": 13,
            "name": "M4 SP-M4-2-TSC-9"
        },
        {
            "translation": [
                0.5873697996139526,
                1.058579444885254,
                1.5066827535629272
            ],
            "mesh": 14,
            "name": "M4 SP-M4-2-TSC-6"
        },
        {
            "rotation": [
                0.0,
                0.7071068286895752,
                0.0,
                0.7071068286895752
            ],
            "translation": [
                0.6236136555671692,
                1.0576658248901367,
                1.5453451871871948
            ],
            "mesh": 15,
            "name": "M4 SP-M4-2-TSC-7"
        },
        {
            "translation": [
                0.5873697996139526,
                1.0585905313491821,
                1.3031539916992188
            ],
            "mesh": 16,
            "name": "M4 SP-M4-2-TSC-5"
        },
        {
            "rotation": [
                0.0,
                0.7071068286895752,
                0.0,
                0.7071068286895752
            ],
            "translation": [
                0.940416157245636,
                1.0590795278549194,
                1.5453451871871948
            ],
            "mesh": 17,
            "name": "M4 SP-M4-2-TSC-8"
        },
        {
            "rotation": [
                0.0,
                1.0,
                0.0,
                -3.491481243527014e-15
            ],
            "translation": [
                0.9791697859764099,
                1.0570299625396729,
                1.3015685081481934
            ],
            "mesh": 18,
            "name": "M4 SP-M4-2-TSC-10"
        }
    ],
    "cameras": [
        {
            "type": "orthographic",
            "orthographic": {
                "xmag": 0.410448902623964,
                "ymag": 0.3171650611185176,
                "zfar": 2.4553939564270904,
                "znear": 1.408530530664207
            }
        }
    ],
    "meshes": [
        {
            "primitives": [
                {
                    "attributes": {
                        "POSITION": 1,
                        "NORMAL": 2
                    },
                    "indices": 0,
                    "material": 0,
                    "mode": 4
                }
            ]
        },
        {
            "primitives": [
                {
                    "attributes": {
                        "POSITION": 4,
                        "NORMAL": 5
                    },
                    "indices": 3,
                    "material": 1,
                    "mode": 4
                }
            ]
        },
        {
            "primitives": [
                {
                    "attributes": {
                        "POSITION": 7,
                        "NORMAL": 8,
                        "TEXCOORD_0": 9
                    },
                    "indices": 6,
                    "material": 2,
                    "mode": 4
                },
                {
                    "attributes": {
                        "POSITION": 11,
                        "NORMAL": 12
                    },
                    "indices": 10,
                    "material": 3,
                    "mode": 4
                }
            ]
        },
        {
            "primitives": [
                {
                    "attributes": {
                        "POSITION": 14,
                        "NORMAL": 15
                    },
                    "indices": 13,
                    "material": 0,
                    "mode": 4
                }
            ]
        },
        {
            "primitives": [
                {
                    "attributes": {
                        "POSITION": 17,
                        "NORMAL": 18
                    },
                    "indices": 16,
                    "material": 0,
                    "mode": 4
                }
            ]
        },
        {
            "primitives": [
                {
                    "attributes": {
                        "POSITION": 20,
                        "NORMAL": 21
                    },
                    "indices": 19,
                    "material": 1,
                    "mode": 4
                }
            ]
        },
        {
            "primitives": [
                {
                    "attributes": {
                        "POSITION": 23,
                        "NORMAL": 24,
                        "TEXCOORD_0": 25
                    },
                    "indices": 22,
                    "material": 2,
                    "mode": 4
                },
                {
                    "attributes": {
                        "POSITION": 27,
                        "NORMAL": 28
                    },
                    "indices": 26,
                    "material": 3,
                    "mode": 4
                }
            ]
        },
        {
            "primitives": [
                {
                    "attributes": {
                        "POSITION": 30,
                        "NORMAL": 31
                    },
                    "indices": 29,
                    "material": 0,
                    "mode": 4
                }
            ]
        },
        {
            "primitives": [
                {
                    "attributes": {
                        "POSITION": 33,
                        "NORMAL": 34
                    },
                    "indices": 32,
                    "material": 0,
                    "mode": 4
                }
            ]
        },
        {
            "primitives": [
                {
                    "attributes": {
                        "POSITION": 36,
                        "NORMAL": 37
                    },
                    "indices": 35,
                    "material": 0,
                    "mode": 4
                }
            ]
        },
        {
            "primitives": [
                {
                    "attributes": {
                        "POSITION": 39,
                        "NORMAL": 40
                    },
                    "indices": 38,
                    "material": 0,
                    "mode": 4
                }
            ]
        },
        {
            "primitives": [
                {
                    "attributes": {
                        "POSITION": 42,
                        "NORMAL": 43
                    },
                    "indices": 41,
                    "material": 4,
                    "mode": 4
                }
            ]
        },
        {
            "primitives": [
                {
                    "attributes": {
                        "POSITION": 45,
                        "NORMAL": 46
                    },
                    "indices": 44,
                    "material": 5,
                    "mode": 4
                }
            ]
        },
        {
            "primitives": [
                {
                    "attributes": {
                        "POSITION": 48,
                        "NORMAL": 49,
                        "TEXCOORD_0": 50
                    },
                    "indices": 47,
                    "material": 2,
                    "mode": 4
                },
                {
                    "attributes": {
                        "POSITION": 52,
                        "NORMAL": 53
                    },
                    "indices": 51,
                    "material": 3,
                    "mode": 4
                }
            ]
        },
        {
            "primitives": [
                {
                    "attributes": {
                        "POSITION": 55,
                        "NORMAL": 56,
                        "TEXCOORD_0": 57
                    },
                    "indices": 54,
                    "material": 2,
                    "mode": 4
                },
                {
                    "attributes": {
                        "POSITION": 59,
                        "NORMAL": 60
                    },
                    "indices": 58,
                    "material": 3,
                    "mode": 4
                }
            ]
        },
        {
            "primitives": [
                {
                    "attributes": {
                        "POSITION": 62,
                        "NORMAL": 63,
                        "TEXCOORD_0": 64
                    },
                    "indices": 61,
                    "material": 2,
                    "mode": 4
                },
                {
                    "attributes": {
                        "POSITION": 66,
                        "NORMAL": 67
                    },
                    "indices": 65,
                    "material": 3,
                    "mode": 4
                }
            ]
        },
        {
            "primitives": [
                {
                    "attributes": {
                        "POSITION": 69,
                        "NORMAL": 70,
                        "TEXCOORD_0": 71
                    },
                    "indices": 68,
                    "material": 2,
                    "mode": 4
                },
                {
                    "attributes": {
                        "POSITION": 73,
                        "NORMAL": 74
                    },
                    "indices": 72,
                    "material": 3,
                    "mode": 4
                }
            ]
        },
        {
            "primitives": [
                {
                    "attributes": {
                        "POSITION": 76,
                        "NORMAL": 77,
                        "TEXCOORD_0": 78
                    },
                    "indices": 75,
                    "material": 2,
                    "mode": 4
                },
                {
                    "attributes": {
                        "POSITION": 80,
                        "NORMAL": 81
                    },
                    "indices": 79,
                    "material": 3,
                    "mode": 4
                }
            ]
        },
        {
            "primitives": [
                {
                    "attributes": {
                        "POSITION": 83,
                        "NORMAL": 84,
                        "TEXCOORD_0": 85
                    },
                    "indices": 82,
                    "material": 2,
                    "mode": 4
                },
                {
                    "attributes": {
                        "POSITION": 87,
                        "NORMAL": 88
                    },
                    "indices": 86,
                    "material": 3,
                    "mode": 4
                }
            ]
        }
    ],
    "accessors": [
        {
            "bufferView": 0,
            "byteOffset": 0,
            "componentType": 5125,
            "count": 16584,
            "type": "SCALAR",
            "min": [
                0
            ],
            "max": [
                7483
            ]
        },
        {
            "bufferView": 1,
            "byteOffset": 0,
            "componentType": 5126,
            "count": 7484,
            "type": "VEC3",
            "min": [
                -0.0020000000949949026,
                -0.02539999969303608,
                0.0
            ],
            "max": [
                0.29194000363349915,
                0.18459999561309814,
                0.5971400141716003
            ]
        },
        {
            "bufferView": 2,
            "byteOffset": 0,
            "componentType": 5126,
            "count": 7484,
            "type": "VEC3",
            "min": [
                -1.0,
                -1.0,
                -1.0
            ],
            "max": [
                1.0,
                1.0,
                1.0
            ]
        },
        {
            "bufferView": 3,
            "byteOffset": 0,
            "componentType": 5125,
            "count": 1591338,
            "type": "SCALAR",
            "min": [
                0
            ],
            "max": [
                670237
            ]
        },
        {
            "bufferView": 4,
            "byteOffset": 0,
            "componentType": 5126,
            "count": 670238,
            "type": "VEC3",
            "min": [
                -0.3429499864578247,
                -0.014643566682934761,
                -0.0024999999441206455
            ],
            "max": [
                -0.022700000554323196,
                0.2336435616016388,
                0.07349999994039536
            ]
        },
        {
            "bufferView": 5,
            "byteOffset": 0,
            "componentType": 5126,
            "count": 670238,
            "type": "VEC3",
            "min": [
                -1.0,
                -1.0,
                -1.0
            ],
            "max": [
                1.0,
                1.0,
                1.0
            ]
        },
        {
            "bufferView": 6,
            "byteOffset": 0,
            "componentType": 5125,
            "count": 5235,
            "type": "SCALAR",
            "min": [
                0
            ],
            "max": [
                2682
            ]
        },
        {
            "bufferView": 7,
            "byteOffset": 0,
            "componentType": 5126,
            "count": 2683,
            "type": "VEC3",
            "min": [
                -1.1529862742745552e-34,
                -0.003946535289287567,
                -0.003949133679270744
            ],
            "max": [
                0.003370000049471855,
                0.003949999809265137,
                0.003949133679270744
            ]
        },
        {
            "bufferView": 8,
            "byteOffset": 0,
            "componentType": 5126,
            "count": 2683,
            "type": "VEC3",
            "min": [
                -1.0,
                -1.0,
                -0.9998739957809448
            ],
            "max": [
                1.0,
                1.0,
                0.9998739957809448
            ]
        },
        {
            "bufferView": 9,
            "byteOffset": 0,
            "componentType": 5126,
            "count": 2683,
            "type": "VEC2",
            "min": [
                3.749019145965576,
                -3.809248924255371
            ],
            "max": [
                3.9386208057403564,
                -3.749999761581421
            ]
        },
        {
            "bufferView": 6,
            "byteOffset": 20940,
            "componentType": 5125,
            "count": 609,
            "type": "SCALAR",
            "min": [
                0
            ],
            "max": [
                228
            ]
        },
        {
            "bufferView": 7,
            "byteOffset": 32196,
            "componentType": 5126,
            "count": 229,
            "type": "VEC3",
            "min": [
                0.0003499999875202775,
                -0.0016492754220962524,
                -0.0016499999910593033
            ],
            "max": [
                0.003019999945536256,
                0.0016492754220962524,
                0.0016499999910593033
            ]
        },
        {
            "bufferView": 8,
            "byteOffset": 32196,
            "componentType": 5126,
            "count": 229,
            "type": "VEC3",
            "min": [
                0.0,
                -0.9995608329772949,
                -1.0
            ],
            "max": [
                0.0,
                0.9995608329772949,
                1.0
            ]
        },
        {
            "bufferView": 10,
            "byteOffset": 0,
            "componentType": 5125,
            "count": 204,
            "type": "SCALAR",
            "min": [
                0
            ],
            "max": [
                97
            ]
        },
        {
            "bufferView": 11,
            "byteOffset": 0,
            "componentType": 5126,
            "count": 98,
            "type": "VEC3",
            "min": [
                -1.410941481590271,
                -2.073436737060547,
                -0.0008099999977275729
            ],
            "max": [
                -1.3833949565887451,
                -1.925966739654541,
                0.025189999490976334
            ]
        },
        {
            "bufferView": 12,
            "byteOffset": 0,
            "componentType": 5126,
            "count": 98,
            "type": "VEC3",
            "min": [
                -1.0,
                -1.0,
                -1.0
            ],
            "max": [
                1.0,
                1.0,
                1.0
            ]
        },
        {
            "bufferView": 13,
            "byteOffset": 0,
            "componentType": 5125,
            "count": 720,
            "type": "SCALAR",
            "min": [
                0
            ],
            "max": [
                327
            ]
        },
        {
            "bufferView": 14,
            "byteOffset": 0,
            "componentType": 5126,
            "count": 328,
            "type": "VEC3",
            "min": [
                -0.19915999472141266,
                -0.0032599999103695154,
                -0.14496999979019165
            ],
            "max": [
                0.19915999472141266,
                0.05674000084400177,
                0.14496999979019165
            ]
        },
        {
            "bufferView": 15,
            "byteOffset": 0,
            "componentType": 5126,
            "count": 328,
            "type": "VEC3",
            "min": [
                -1.0,
                -1.0,
                -1.0
            ],
            "max": [
                1.0,
                1.0,
                1.0
            ]
        },
        {
            "bufferView": 16,
            "byteOffset": 0,
            "componentType": 5125,
            "count": 1591338,
            "type": "SCALAR",
            "min": [
                0
            ],
            "max": [
                670237
            ]
        },
        {
            "bufferView": 17,
            "byteOffset": 0,
            "componentType": 5126,
            "count": 670238,
            "type": "VEC3",
            "min": [
                -0.3429499864578247,
                -0.014643566682934761,
                -0.0024999999441206455
            ],
            "max": [
                -0.022700000554323196,
                0.2336435616016388,
                0.07349999994039536
            ]
        },
        {
            "bufferView": 18,
            "byteOffset": 0,
            "componentType": 5126,
            "count": 670238,
            "type": "VEC3",
            "min": [
                -1.0,
                -1.0,
                -1.0
            ],
            "max": [
                1.0,
                1.0,
                1.0
            ]
        },
        {
            "bufferView": 19,
            "byteOffset": 0,
            "componentType": 5125,
            "count": 5235,
            "type": "SCALAR",
            "min": [
                0
            ],
            "max": [
                2682
            ]
        },
        {
            "bufferView": 20,
            "byteOffset": 0,
            "componentType": 5126,
            "count": 2683,
            "type": "VEC3",
            "min": [
                -1.1529862742745552e-34,
                -0.003946535289287567,
                -0.003949133679270744
            ],
            "max": [
                0.003370000049471855,
                0.003949999809265137,
                0.003949133679270744
            ]
        },
        {
            "bufferView": 21,
            "byteOffset": 0,
            "componentType": 5126,
            "count": 2683,
            "type": "VEC3",
            "min": [
                -1.0,
                -1.0,
                -0.9998739957809448
            ],
            "max": [
                1.0,
                1.0,
                0.9998739957809448
            ]
        },
        {
            "bufferView": 22,
            "byteOffset": 0,
            "componentType": 5126,
            "count": 2683,
            "type": "VEC2",
            "min": [
                3.749019145965576,
                -3.809248924255371
            ],
            "max": [
                3.9386208057403564,
                -3.749999761581421
            ]
        },
        {
            "bufferView": 19,
            "byteOffset": 20940,
            "componentType": 5125,
            "count": 609,
            "type": "SCALAR",
            "min": [
                0
            ],
            "max": [
                228
            ]
        },
        {
            "bufferView": 20,
            "byteOffset": 32196,
            "componentType": 5126,
            "count": 229,
            "type": "VEC3",
            "min": [
                0.0003499999875202775,
                -0.0016492754220962524,
                -0.0016499999910593033
            ],
            "max": [
                0.003019999945536256,
                0.0016492754220962524,
                0.0016499999910593033
            ]
        },
        {
            "bufferView": 21,
            "byteOffset": 32196,
            "componentType": 5126,
            "count": 229,
            "type": "VEC3",
            "min": [
                0.0,
                -0.9995608329772949,
                -1.0
            ],
            "max": [
                0.0,
                0.9995608329772949,
                1.0
            ]
        },
        {
            "bufferView": 23,
            "byteOffset": 0,
            "componentType": 5125,
            "count": 2976,
            "type": "SCALAR",
            "min": [
                0
            ],
            "max": [
                1519
            ]
        },
        {
            "bufferView": 24,
            "byteOffset": 0,
            "componentType": 5126,
            "count": 1520,
            "type": "VEC3",
            "min": [
                -0.1735299974679947,
                -0.0032599999103695154,
                -0.13752999901771545
            ],
            "max": [
                0.21152999997138977,
                0.1567399948835373,
                0.13752999901771545
            ]
        },
        {
            "bufferView": 25,
            "byteOffset": 0,
            "componentType": 5126,
            "count": 1520,
            "type": "VEC3",
            "min": [
                -1.0,
                -1.0,
                -1.0
            ],
            "max": [
                1.0,
                1.0,
                1.0
            ]
        },
        {
            "bufferView": 26,
            "byteOffset": 0,
            "componentType": 5125,
            "count": 204,
            "type": "SCALAR",
            "min": [
                0
            ],
            "max": [
                97
            ]
        },
        {
            "bufferView": 27,
            "byteOffset": 0,
            "componentType": 5126,
            "count": 98,
            "type": "VEC3",
            "min": [
                -1.410941481590271,
                -2.073436737060547,
                -0.0008099999977275729
            ],
            "max": [
                -1.3833949565887451,
                -1.925966739654541,
                0.025189999490976334
            ]
        },
        {
            "bufferView": 28,
            "byteOffset": 0,
            "componentType": 5126,
            "count": 98,
            "type": "VEC3",
            "min": [
                -1.0,
                -1.0,
                -1.0
            ],
            "max": [
                1.0,
                1.0,
                1.0
            ]
        },
        {
            "bufferView": 29,
            "byteOffset": 0,
            "componentType": 5125,
            "count": 204,
            "type": "SCALAR",
            "min": [
                0
            ],
            "max": [
                97
            ]
        },
        {
            "bufferView": 30,
            "byteOffset": 0,
            "componentType": 5126,
            "count": 98,
            "type": "VEC3",
            "min": [
                -1.410941481590271,
                -2.073436737060547,
                -0.0008099999977275729
            ],
            "max": [
                -1.3833949565887451,
                -1.925966739654541,
                0.025189999490976334
            ]
        },
        {
            "bufferView": 31,
            "byteOffset": 0,
            "componentType": 5126,
            "count": 98,
            "type": "VEC3",
            "min": [
                -1.0,
                -1.0,
                -1.0
            ],
            "max": [
                1.0,
                1.0,
                1.0
            ]
        },
        {
            "bufferView": 32,
            "byteOffset": 0,
            "componentType": 5125,
            "count": 204,
            "type": "SCALAR",
            "min": [
                0
            ],
            "max": [
                97
            ]
        },
        {
            "bufferView": 33,
            "byteOffset": 0,
            "componentType": 5126,
            "count": 98,
            "type": "VEC3",
            "min": [
                -1.410941481590271,
                -2.073436737060547,
                -0.0008099999977275729
            ],
            "max": [
                -1.3833949565887451,
                -1.925966739654541,
                0.025189999490976334
            ]
        },
        {
            "bufferView": 34,
            "byteOffset": 0,
            "componentType": 5126,
            "count": 98,
            "type": "VEC3",
            "min": [
                -1.0,
                -1.0,
                -1.0
            ],
            "max": [
                1.0,
                1.0,
                1.0
            ]
        },
        {
            "bufferView": 35,
            "byteOffset": 0,
            "componentType": 5125,
            "count": 27372,
            "type": "SCALAR",
            "min": [
                0
            ],
            "max": [
                12203
            ]
        },
        {
            "bufferView": 36,
            "byteOffset": 0,
            "componentType": 5126,
            "count": 12204,
            "type": "VEC3",
            "min": [
                -0.056495301425457,
                -0.05649751424789429,
                0.0020000000949949026
            ],
            "max": [
                0.05649802088737488,
                0.055446892976760864,
                0.03799999877810478
            ]
        },
        {
            "bufferView": 37,
            "byteOffset": 0,
            "componentType": 5126,
            "count": 12204,
            "type": "VEC3",
            "min": [
                -1.0,
                -1.0,
                -1.0
            ],
            "max": [
                1.0,
                1.0,
                1.0
            ]
        },
        {
            "bufferView": 38,
            "byteOffset": 0,
            "componentType": 5125,
            "count": 45894,
            "type": "SCALAR",
            "min": [
                0
            ],
            "max": [
                22261
            ]
        },
        {
            "bufferView": 39,
            "byteOffset": 0,
            "componentType": 5126,
            "count": 22262,
            "type": "VEC3",
            "min": [
                -0.05999999865889549,
                -0.05999999865889549,
                -1.644833262502302e-17
            ],
            "max": [
                0.05999999865889549,
                0.05999999865889549,
                0.03849999979138374
            ]
        },
        {
            "bufferView": 40,
            "byteOffset": 0,
            "componentType": 5126,
            "count": 22262,
            "type": "VEC3",
            "min": [
                -1.0,
                -1.0,
                -1.0
            ],
            "max": [
                1.0,
                1.0,
                1.0
            ]
        },
        {
            "bufferView": 41,
            "byteOffset": 0,
            "componentType": 5125,
            "count": 5235,
            "type": "SCALAR",
            "min": [
                0
            ],
            "max": [
                2682
            ]
        },
        {
            "bufferView": 42,
            "byteOffset": 0,
            "componentType": 5126,
            "count": 2683,
            "type": "VEC3",
            "min": [
                -1.1529862742745552e-34,
                -0.003946535289287567,
                -0.003949133679270744
            ],
            "max": [
                0.003370000049471855,
                0.003949999809265137,
                0.003949133679270744
            ]
        },
        {
            "bufferView": 43,
            "byteOffset": 0,
            "componentType": 5126,
            "count": 2683,
            "type": "VEC3",
            "min": [
                -1.0,
                -1.0,
                -0.9998739957809448
            ],
            "max": [
                1.0,
                1.0,
                0.9998739957809448
            ]
        },
        {
            "bufferView": 44,
            "byteOffset": 0,
            "componentType": 5126,
            "count": 2683,
            "type": "VEC2",
            "min": [
                3.749019145965576,
                -3.809248924255371
            ],
            "max": [
                3.9386208057403564,
                -3.749999761581421
            ]
        },
        {
            "bufferView": 41,
            "byteOffset": 20940,
            "componentType": 5125,
            "count": 609,
            "type": "SCALAR",
            "min": [
                0
            ],
            "max": [
                228
            ]
        },
        {
            "bufferView": 42,
            "byteOffset": 32196,
            "componentType": 5126,
            "count": 229,
            "type": "VEC3",
            "min": [
                0.0003499999875202775,
                -0.0016492754220962524,
                -0.0016499999910593033
            ],
            "max": [
                0.003019999945536256,
                0.0016492754220962524,
                0.0016499999910593033
            ]
        },
        {
            "bufferView": 43,
            "byteOffset": 32196,
            "componentType": 5126,
            "count": 229,
            "type": "VEC3",
            "min": [
                0.0,
                -0.9995608329772949,
                -1.0
            ],
            "max": [
                0.0,
                0.9995608329772949,
                1.0
            ]
        },
        {
            "bufferView": 45,
            "byteOffset": 0,
            "componentType": 5125,
            "count": 5235,
            "type": "SCALAR",
            "min": [
                0
            ],
            "max": [
                2682
            ]
        },
        {
            "bufferView": 46,
            "byteOffset": 0,
            "componentType": 5126,
            "count": 2683,
            "type": "VEC3",
            "min": [
                -1.1529862742745552e-34,
                -0.003946535289287567,
                -0.003949133679270744
            ],
            "max": [
                0.003370000049471855,
                0.003949999809265137,
                0.003949133679270744
            ]
        },
        {
            "bufferView": 47,
            "byteOffset": 0,
            "componentType": 5126,
            "count": 2683,
            "type": "VEC3",
            "min": [
                -1.0,
                -1.0,
                -0.9998739957809448
            ],
            "max": [
                1.0,
                1.0,
                0.9998739957809448
            ]
        },
        {
            "bufferView": 48,
            "byteOffset": 0,
            "componentType": 5126,
            "count": 2683,
            "type": "VEC2",
            "min": [
                3.749019145965576,
                -3.809248924255371
            ],
            "max": [
                3.9386208057403564,
                -3.749999761581421
            ]
        },
        {
            "bufferView": 45,
            "byteOffset": 20940,
            "componentType": 5125,
            "count": 609,
            "type": "SCALAR",
            "min": [
                0
            ],
            "max": [
                228
            ]
        },
        {
            "bufferView": 46,
            "byteOffset": 32196,
            "componentType": 5126,
            "count": 229,
            "type": "VEC3",
            "min": [
                0.0003499999875202775,
                -0.0016492754220962524,
                -0.0016499999910593033
            ],
            "max": [
                0.003019999945536256,
                0.0016492754220962524,
                0.0016499999910593033
            ]
        },
        {
            "bufferView": 47,
            "byteOffset": 32196,
            "componentType": 5126,
            "count": 229,
            "type": "VEC3",
            "min": [
                0.0,
                -0.9995608329772949,
                -1.0
            ],
            "max": [
                0.0,
                0.9995608329772949,
                1.0
            ]
        },
        {
            "bufferView": 49,
            "byteOffset": 0,
            "componentType": 5125,
            "count": 5235,
            "type": "SCALAR",
            "min": [
                0
            ],
            "max": [
                2682
            ]
        },
        {
            "bufferView": 50,
            "byteOffset": 0,
            "componentType": 5126,
            "count": 2683,
            "type": "VEC3",
            "min": [
                -1.1529862742745552e-34,
                -0.003946535289287567,
                -0.003949133679270744
            ],
            "max": [
                0.003370000049471855,
                0.003949999809265137,
                0.003949133679270744
            ]
        },
        {
            "bufferView": 51,
            "byteOffset": 0,
            "componentType": 5126,
            "count": 2683,
            "type": "VEC3",
            "min": [
                -1.0,
                -1.0,
                -0.9998739957809448
            ],
            "max": [
                1.0,
                1.0,
                0.9998739957809448
            ]
        },
        {
            "bufferView": 52,
            "byteOffset": 0,
            "componentType": 5126,
            "count": 2683,
            "type": "VEC2",
            "min": [
                3.749019145965576,
                -3.809248924255371
            ],
            "max": [
                3.9386208057403564,
                -3.749999761581421
            ]
        },
        {
            "bufferView": 49,
            "byteOffset": 20940,
            "componentType": 5125,
            "count": 609,
            "type": "SCALAR",
            "min": [
                0
            ],
            "max": [
                228
            ]
        },
        {
            "bufferView": 50,
            "byteOffset": 32196,
            "componentType": 5126,
            "count": 229,
            "type": "VEC3",
            "min": [
                0.0003499999875202775,
                -0.0016492754220962524,
                -0.0016499999910593033
            ],
            "max": [
                0.003019999945536256,
                0.0016492754220962524,
                0.0016499999910593033
            ]
        },
        {
            "bufferView": 51,
            "byteOffset": 32196,
            "componentType": 5126,
            "count": 229,
            "type": "VEC3",
            "min": [
                0.0,
                -0.9995608329772949,
                -1.0
            ],
            "max": [
                0.0,
                0.9995608329772949,
                1.0
            ]
        },
        {
            "bufferView": 53,
            "byteOffset": 0,
            "componentType": 5125,
            "count": 5235,
            "type": "SCALAR",
            "min": [
                0
            ],
            "max": [
                2682
            ]
        },
        {
            "bufferView": 54,
            "byteOffset": 0,
            "componentType": 5126,
            "count": 2683,
            "type": "VEC3",
            "min": [
                -1.1529862742745552e-34,
                -0.003946535289287567,
                -0.003949133679270744
            ],
            "max": [
                0.003370000049471855,
                0.003949999809265137,
                0.003949133679270744
            ]
        },
        {
            "bufferView": 55,
            "byteOffset": 0,
            "componentType": 5126,
            "count": 2683,
            "type": "VEC3",
            "min": [
                -1.0,
                -1.0,
                -0.9998739957809448
            ],
            "max": [
                1.0,
                1.0,
                0.9998739957809448
            ]
        },
        {
            "bufferView": 56,
            "byteOffset": 0,
            "componentType": 5126,
            "count": 2683,
            "type": "VEC2",
            "min": [
                3.749019145965576,
                -3.809248924255371
            ],
            "max": [
                3.9386208057403564,
                -3.749999761581421
            ]
        },
        {
            "bufferView": 53,
            "byteOffset": 20940,
            "componentType": 5125,
            "count": 609,
            "type": "SCALAR",
            "min": [
                0
            ],
            "max": [
                228
            ]
        },
        {
            "bufferView": 54,
            "byteOffset": 32196,
            "componentType": 5126,
            "count": 229,
            "type": "VEC3",
            "min": [
                0.0003499999875202775,
                -0.0016492754220962524,
                -0.0016499999910593033
            ],
            "max": [
                0.003019999945536256,
                0.0016492754220962524,
                0.0016499999910593033
            ]
        },
        {
            "bufferView": 55,
            "byteOffset": 32196,
            "componentType": 5126,
            "count": 229,
            "type": "VEC3",
            "min": [
                0.0,
                -0.9995608329772949,
                -1.0
            ],
            "max": [
                0.0,
                0.9995608329772949,
                1.0
            ]
        },
        {
            "bufferView": 57,
            "byteOffset": 0,
            "componentType": 5125,
            "count": 5235,
            "type": "SCALAR",
            "min": [
                0
            ],
            "max": [
                2682
            ]
        },
        {
            "bufferView": 58,
            "byteOffset": 0,
            "componentType": 5126,
            "count": 2683,
            "type": "VEC3",
            "min": [
                -1.1529862742745552e-34,
                -0.003946535289287567,
                -0.003949133679270744
            ],
            "max": [
                0.003370000049471855,
                0.003949999809265137,
                0.003949133679270744
            ]
        },
        {
            "bufferView": 59,
            "byteOffset": 0,
            "componentType": 5126,
            "count": 2683,
            "type": "VEC3",
            "min": [
                -1.0,
                -1.0,
                -0.9998739957809448
            ],
            "max": [
                1.0,
                1.0,
                0.9998739957809448
            ]
        },
        {
            "bufferView": 60,
            "byteOffset": 0,
            "componentType": 5126,
            "count": 2683,
            "type": "VEC2",
            "min": [
                3.749019145965576,
                -3.809248924255371
            ],
            "max": [
                3.9386208057403564,
                -3.749999761581421
            ]
        },
        {
            "bufferView": 57,
            "byteOffset": 20940,
            "componentType": 5125,
            "count": 609,
            "type": "SCALAR",
            "min": [
                0
            ],
            "max": [
                228
            ]
        },
        {
            "bufferView": 58,
            "byteOffset": 32196,
            "componentType": 5126,
            "count": 229,
            "type": "VEC3",
            "min": [
                0.0003499999875202775,
                -0.0016492754220962524,
                -0.0016499999910593033
            ],
            "max": [
                0.003019999945536256,
                0.0016492754220962524,
                0.0016499999910593033
            ]
        },
        {
            "bufferView": 59,
            "byteOffset": 32196,
            "componentType": 5126,
            "count": 229,
            "type": "VEC3",
            "min": [
                0.0,
                -0.9995608329772949,
                -1.0
            ],
            "max": [
                0.0,
                0.9995608329772949,
                1.0
            ]
        },
        {
            "bufferView": 61,
            "byteOffset": 0,
            "componentType": 5125,
            "count": 5235,
            "type": "SCALAR",
            "min": [
                0
            ],
            "max": [
                2682
            ]
        },
        {
            "bufferView": 62,
            "byteOffset": 0,
            "componentType": 5126,
            "count": 2683,
            "type": "VEC3",
            "min": [
                -1.1529862742745552e-34,
                -0.003946535289287567,
                -0.003949133679270744
            ],
            "max": [
                0.003370000049471855,
                0.003949999809265137,
                0.003949133679270744
            ]
        },
        {
            "bufferView": 63,
            "byteOffset": 0,
            "componentType": 5126,
            "count": 2683,
            "type": "VEC3",
            "min": [
                -1.0,
                -1.0,
                -0.9998739957809448
            ],
            "max": [
                1.0,
                1.0,
                0.9998739957809448
            ]
        },
        {
            "bufferView": 64,
            "byteOffset": 0,
            "componentType": 5126,
            "count": 2683,
            "type": "VEC2",
            "min": [
                3.749019145965576,
                -3.809248924255371
            ],
            "max": [
                3.9386208057403564,
                -3.749999761581421
            ]
        },
        {
            "bufferView": 61,
            "byteOffset": 20940,
            "componentType": 5125,
            "count": 609,
            "type": "SCALAR",
            "min": [
                0
            ],
            "max": [
                228
            ]
        },
        {
            "bufferView": 62,
            "byteOffset": 32196,
            "componentType": 5126,
            "count": 229,
            "type": "VEC3",
            "min": [
                0.0003499999875202775,
                -0.0016492754220962524,
                -0.0016499999910593033
            ],
            "max": [
                0.003019999945536256,
                0.0016492754220962524,
                0.0016499999910593033
            ]
        },
        {
            "bufferView": 63,
            "byteOffset": 32196,
            "componentType": 5126,
            "count": 229,
            "type": "VEC3",
            "min": [
                0.0,
                -0.9995608329772949,
                -1.0
            ],
            "max": [
                0.0,
                0.9995608329772949,
                1.0
            ]
        }
    ],
    "materials": [
        {
            "name": "color",
            "pbrMetallicRoughness": {
                "baseColorFactor": [
                    0.8941177129745483,
                    0.8941177129745483,
                    0.8941177129745483,
                    1.0
                ],
                "metallicFactor": 0.0,
                "roughnessFactor": 0.20000000298023224
            }
        },
        {
            "name": "color",
            "pbrMetallicRoughness": {
                "baseColorFactor": [
                    0.6274510025978088,
                    0.6274510025978088,
                    0.6274510025978088,
                    1.0
                ],
                "metallicFactor": 0.0,
                "roughnessFactor": 0.20000000298023224
            }
        },
        {
            "name": "texture",
            "pbrMetallicRoughness": {
                "baseColorTexture": {
                    "index": 0
                },
                "baseColorFactor": [
                    0.7529412508010864,
                    0.7529412508010864,
                    0.7529412508010864,
                    1.0
                ],
                "metallicFactor": 0.0,
                "roughnessFactor": 0.15000000596046448
            }
        },
        {
            "pbrMetallicRoughness": {
                "baseColorFactor": [
                    0.7529412508010864,
                    0.7529412508010864,
                    0.7529412508010864,
                    1.0
                ],
                "metallicFactor": 0.0,
                "roughnessFactor": 0.20000000298023224
            }
        },
        {
            "name": "color",
            "pbrMetallicRoughness": {
                "baseColorFactor": [
                    0.5058823823928833,
                    0.5803921818733215,
                    0.5960784554481506,
                    1.0
                ],
                "metallicFactor": 0.0,
                "roughnessFactor": 0.20000000298023224
            }
        },
        {
            "name": "color",
            "pbrMetallicRoughness": {
                "baseColorFactor": [
                    0.6666666865348816,
                    0.6666666865348816,
                    0.6666666865348816,
                    1.0
                ],
                "metallicFactor": 0.0,
                "roughnessFactor": 0.20000000298023224
            }
        }
    ],
    "textures": [
        {
            "sampler": 0,
            "source": 0
        }
    ],
    "images": [
        {
            "uri": "cast_fine.jpg"
        }
    ],
    "samplers": [
        {
            "magFilter": 9729,
            "minFilter": 9729,
            "wrapS": 10497,
            "wrapT": 10497
        }
    ],
    "bufferViews": [
        {
            "buffer": 0,
            "byteOffset": 0,
            "byteLength": 66336,
            "target": 34963
        },
        {
            "buffer": 0,
            "byteOffset": 66336,
            "byteLength": 89808,
            "byteStride": 12,
            "target": 34962
        },
        {
            "buffer": 0,
            "byteOffset": 156144,
            "byteLength": 89808,
            "byteStride": 12,
            "target": 34962
        },
        {
            "buffer": 1,
            "byteOffset": 0,
            "byteLength": 6365352,
            "target": 34963
        },
        {
            "buffer": 1,
            "byteOffset": 6365352,
            "byteLength": 8042856,
            "byteStride": 12,
            "target": 34962
        },
        {
            "buffer": 1,
            "byteOffset": 14408208,
            "byteLength": 8042856,
            "byteStride": 12,
            "target": 34962
        },
        {
            "buffer": 2,
            "byteOffset": 0,
            "byteLength": 23376,
            "target": 34963
        },
        {
            "buffer": 2,
            "byteOffset": 23376,
            "byteLength": 34944,
            "byteStride": 12,
            "target": 34962
        },
        {
            "buffer": 2,
            "byteOffset": 58320,
            "byteLength": 34944,
            "byteStride": 12,
            "target": 34962
        },
        {
            "buffer": 2,
            "byteOffset": 93264,
            "byteLength": 21464,
            "byteStride": 8,
            "target": 34962
        },
        {
            "buffer": 3,
            "byteOffset": 0,
            "byteLength": 816,
            "target": 34963
        },
        {
            "buffer": 3,
            "byteOffset": 816,
            "byteLength": 1176,
            "byteStride": 12,
            "target": 34962
        },
        {
            "buffer": 3,
            "byteOffset": 1992,
            "byteLength": 1176,
            "byteStride": 12,
            "target": 34962
        },
        {
            "buffer": 4,
            "byteOffset": 0,
            "byteLength": 2880,
            "target": 34963
        },
        {
            "buffer": 4,
            "byteOffset": 2880,
            "byteLength": 3936,
            "byteStride": 12,
            "target": 34962
        },
        {
            "buffer": 4,
            "byteOffset": 6816,
            "byteLength": 3936,
            "byteStride": 12,
            "target": 34962
        },
        {
            "buffer": 5,
            "byteOffset": 0,
            "byteLength": 6365352,
            "target": 34963
        },
        {
            "buffer": 5,
            "byteOffset": 6365352,
            "byteLength": 8042856,
            "byteStride": 12,
            "target": 34962
        },
        {
            "buffer": 5,
            "byteOffset": 14408208,
            "byteLength": 8042856,
            "byteStride": 12,
            "target": 34962
        },
        {
            "buffer": 6,
            "byteOffset": 0,
            "byteLength": 23376,
            "target": 34963
        },
        {
            "buffer": 6,
            "byteOffset": 23376,
            "byteLength": 34944,
            "byteStride": 12,
            "target": 34962
        },
        {
            "buffer": 6,
            "byteOffset": 58320,
            "byteLength": 34944,
            "byteStride": 12,
            "target": 34962
        },
        {
            "buffer": 6,
            "byteOffset": 93264,
            "byteLength": 21464,
            "byteStride": 8,
            "target": 34962
        },
        {
            "buffer": 7,
            "byteOffset": 0,
            "byteLength": 11904,
            "target": 34963
        },
        {
            "buffer": 7,
            "byteOffset": 11904,
            "byteLength": 18240,
            "byteStride": 12,
            "target": 34962
        },
        {
            "buffer": 7,
            "byteOffset": 30144,
            "byteLength": 18240,
            "byteStride": 12,
            "target": 34962
        },
        {
            "buffer": 8,
            "byteOffset": 0,
            "byteLength": 816,
            "target": 34963
        },
        {
            "buffer": 8,
            "byteOffset": 816,
            "byteLength": 1176,
            "byteStride": 12,
            "target": 34962
        },
        {
            "buffer": 8,
            "byteOffset": 1992,
            "byteLength": 1176,
            "byteStride": 12,
            "target": 34962
        },
        {
            "buffer": 9,
            "byteOffset": 0,
            "byteLength": 816,
            "target": 34963
        },
        {
            "buffer": 9,
            "byteOffset": 816,
            "byteLength": 1176,
            "byteStride": 12,
            "target": 34962
        },
        {
            "buffer": 9,
            "byteOffset": 1992,
            "byteLength": 1176,
            "byteStride": 12,
            "target": 34962
        },
        {
            "buffer": 10,
            "byteOffset": 0,
            "byteLength": 816,
            "target": 34963
        },
        {
            "buffer": 10,
            "byteOffset": 816,
            "byteLength": 1176,
            "byteStride": 12,
            "target": 34962
        },
        {
            "buffer": 10,
            "byteOffset": 1992,
            "byteLength": 1176,
            "byteStride": 12,
            "target": 34962
        },
        {
            "buffer": 11,
            "byteOffset": 0,
            "byteLength": 109488,
            "target": 34963
        },
        {
            "buffer": 11,
            "byteOffset": 109488,
            "byteLength": 146448,
            "byteStride": 12,
            "target": 34962
        },
        {
            "buffer": 11,
            "byteOffset": 255936,
            "byteLength": 146448,
            "byteStride": 12,
            "target": 34962
        },
        {
            "buffer": 12,
            "byteOffset": 0,
            "byteLength": 183576,
            "target": 34963
        },
        {
            "buffer": 12,
            "byteOffset": 183576,
            "byteLength": 267144,
            "byteStride": 12,
            "target": 34962
        },
        {
            "buffer": 12,
            "byteOffset": 450720,
            "byteLength": 267144,
            "byteStride": 12,
            "target": 34962
        },
        {
            "buffer": 13,
            "byteOffset": 0,
            "byteLength": 23376,
            "target": 34963
        },
        {
            "buffer": 13,
            "byteOffset": 23376,
            "byteLength": 34944,
            "byteStride": 12,
            "target": 34962
        },
        {
            "buffer": 13,
            "byteOffset": 58320,
            "byteLength": 34944,
            "byteStride": 12,
            "target": 34962
        },
        {
            "buffer": 13,
            "byteOffset": 93264,
            "byteLength": 21464,
            "byteStride": 8,
            "target": 34962
        },
        {
            "buffer": 14,
            "byteOffset": 0,
            "byteLength": 23376,
            "target": 34963
        },
        {
            "buffer": 14,
            "byteOffset": 23376,
            "byteLength": 34944,
            "byteStride": 12,
            "target": 34962
        },
        {
            "buffer": 14,
            "byteOffset": 58320,
            "byteLength": 34944,
            "byteStride": 12,
            "target": 34962
        },
        {
            "buffer": 14,
            "byteOffset": 93264,
            "byteLength": 21464,
            "byteStride": 8,
            "target": 34962
        },
        {
            "buffer": 15,
            "byteOffset": 0,
            "byteLength": 23376,
            "target": 34963
        },
        {
            "buffer": 15,
            "byteOffset": 23376,
            "byteLength": 34944,
            "byteStride": 12,
            "target": 34962
        },
        {
            "buffer": 15,
            "byteOffset": 58320,
            "byteLength": 34944,
            "byteStride": 12,
            "target": 34962
        },
        {
            "buffer": 15,
            "byteOffset": 93264,
            "byteLength": 21464,
            "byteStride": 8,
            "target": 34962
        },
        {
            "buffer": 16,
            "byteOffset": 0,
            "byteLength": 23376,
            "target": 34963
        },
        {
            "buffer": 16,
            "byteOffset": 23376,
            "byteLength": 34944,
            "byteStride": 12,
            "target": 34962
        },
        {
            "buffer": 16,
            "byteOffset": 58320,
            "byteLength": 34944,
            "byteStride": 12,
            "target": 34962
        },
        {
            "buffer": 16,
            "byteOffset": 93264,
            "byteLength": 21464,
            "byteStride": 8,
            "target": 34962
        },
        {
            "buffer": 17,
            "byteOffset": 0,
            "byteLength": 23376,
            "target": 34963
        },
        {
            "buffer": 17,
            "byteOffset": 23376,
            "byteLength": 34944,
            "byteStride": 12,
            "target": 34962
        },
        {
            "buffer": 17,
            "byteOffset": 58320,
            "byteLength": 34944,
            "byteStride": 12,
            "target": 34962
        },
        {
            "buffer": 17,
            "byteOffset": 93264,
            "byteLength": 21464,
            "byteStride": 8,
            "target": 34962
        },
        {
            "buffer": 18,
            "byteOffset": 0,
            "byteLength": 23376,
            "target": 34963
        },
        {
            "buffer": 18,
            "byteOffset": 23376,
            "byteLength": 34944,
            "byteStride": 12,
            "target": 34962
        },
        {
            "buffer": 18,
            "byteOffset": 58320,
            "byteLength": 34944,
            "byteStride": 12,
            "target": 34962
        },
        {
            "buffer": 18,
            "byteOffset": 93264,
            "byteLength": 21464,
            "byteStride": 8,
            "target": 34962
        }
    ],
    "buffers": [
        {
            "uri": "0-1-Battery_Mount_V4-1.bin",
            "byteLength": 245952
        },
        {
            "uri": "0-2-12 x 11 battery pack (1).step-1.bin",
            "byteLength": 22451064
        },
        {
            "uri": "0-3-M4 SP-M4-2-TSC-2.bin",
            "byteLength": 114728
        },
        {
            "uri": "0-4-Side piece-4.bin",
            "byteLength": 3168
        },
        {
            "uri": "0-5-lid-1.bin",
            "byteLength": 10752
        },
        {
            "uri": "0-6-12 x 11 battery pack (1).step-3.bin",
            "byteLength": 22451064
        },
        {
            "uri": "0-7-M4 SP-M4-2-TSC-1.bin",
            "byteLength": 114728
        },
        {
            "uri": "0-8-Battery Box Bottom-1.bin",
            "byteLength": 48384
        },
        {
            "uri": "0-9-Side piece-2.bin",
            "byteLength": 3168
        },
        {
            "uri": "0-10-Side piece-1.bin",
            "byteLength": 3168
        },
        {
            "uri": "0-11-Side piece-3.bin",
            "byteLength": 3168
        },
        {
            "uri": "1-12-rotor.step-1.bin",
            "byteLength": 402384
        },
        {
            "uri": "1-13-stator.step-1.bin",
            "byteLength": 717864
        },
        {
            "uri": "1-14-M4 SP-M4-2-TSC-9.bin",
            "byteLength": 114728
        },
        {
            "uri": "1-15-M4 SP-M4-2-TSC-6.bin",
            "byteLength": 114728
        },
        {
            "uri": "1-16-M4 SP-M4-2-TSC-7.bin",
            "byteLength": 114728
        },
        {
            "uri": "1-17-M4 SP-M4-2-TSC-5.bin",
            "byteLength": 114728
        },
        {
            "uri": "1-18-M4 SP-M4-2-TSC-8.bin",
            "byteLength": 114728
        },
        {
            "uri": "1-19-M4 SP-M4-2-TSC-10.bin",
            "byteLength": 114728
        }
    ]
}
